<?xml version="1.0" standalone="no"?>
<!DOCTYPE svg PUBLIC "-//W3C//DTD SVG 20010904//EN"
 "http://www.w3.org/TR/2001/REC-SVG-20010904/DTD/svg10.dtd">
<svg version="1.0" xmlns="http://www.w3.org/2000/svg"
 width="1105.000000pt" height="1105.000000pt" viewBox="0 0 1105.000000 1105.000000"
 preserveAspectRatio="xMidYMid meet">
<metadata>
Created by potrace 1.11, written by Peter Selinger 2001-2013
</metadata>
<g transform="translate(0.000000,1105.000000) scale(0.100000,-0.100000)"
fill="#000000" stroke="none">
<path d="M5337 11034 c-1 -1 -60 -5 -132 -9 -71 -4 -143 -8 -160 -10 -16 -1
-64 -6 -105 -9 -41 -4 -82 -9 -90 -11 -8 -2 -40 -7 -70 -10 -64 -7 -94 -12
-175 -26 -33 -6 -73 -13 -90 -16 -25 -4 -91 -18 -226 -48 -401 -89 -799 -231
-1197 -426 -544 -267 -1034 -619 -1467 -1053 -136 -137 -341 -365 -423 -471
-349 -452 -612 -909 -805 -1400 -66 -167 -129 -351 -169 -495 -33 -116 -95
-367 -103 -417 -3 -18 -9 -52 -14 -75 -5 -24 -12 -61 -15 -82 -4 -21 -8 -48
-11 -60 -2 -12 -7 -41 -10 -66 -3 -25 -7 -56 -9 -70 -8 -48 -19 -143 -31 -265
-11 -113 -19 -310 -19 -480 0 -180 11 -483 19 -495 1 -3 6 -41 9 -85 4 -44 8
-91 11 -105 2 -14 7 -45 10 -70 47 -386 171 -869 320 -1245 25 -62 45 -116 45
-119 0 -18 192 -414 262 -541 148 -267 371 -603 516 -777 11 -12 57 -68 103
-123 102 -124 156 -182 334 -360 141 -141 162 -160 290 -270 39 -33 75 -65 81
-70 19 -19 253 -198 299 -230 23 -16 69 -48 101 -71 310 -215 717 -431 1099
-582 244 -97 633 -213 860 -258 11 -2 31 -6 45 -9 14 -3 61 -12 105 -20 44 -8
91 -17 105 -19 14 -3 78 -12 144 -21 111 -14 145 -18 256 -30 234 -24 786 -24
980 0 31 4 137 15 195 20 37 4 120 16 135 20 8 2 35 6 60 9 233 30 723 154
965 244 28 11 95 36 150 57 191 72 482 208 680 318 228 126 495 302 705 464
290 223 667 591 902 881 49 60 211 277 260 347 60 86 198 303 198 311 0 2 11
21 24 42 96 147 293 552 382 788 46 120 85 228 88 244 2 8 18 58 34 110 65
203 136 494 167 688 3 17 7 46 10 62 10 62 14 86 20 139 4 30 8 61 10 70 1 9
6 48 10 88 4 40 8 85 10 100 23 187 24 821 1 963 -3 14 -7 59 -11 100 -6 75
-11 119 -20 175 -3 17 -8 50 -11 75 -3 25 -7 56 -10 70 -2 14 -7 41 -10 60
-53 326 -203 844 -329 1135 -89 206 -119 271 -184 400 -77 153 -203 374 -273
477 -21 31 -38 60 -38 63 0 3 -5 11 -10 18 -6 7 -51 71 -102 142 -242 343
-575 710 -891 980 -32 28 -69 59 -82 70 -45 40 -72 61 -210 165 -120 90 -203
148 -415 286 -156 101 -517 288 -720 373 -58 24 -118 50 -135 57 -172 77 -658
224 -885 268 -124 25 -293 56 -330 60 -25 4 -63 9 -85 12 -78 11 -91 12 -150
19 -205 21 -332 28 -563 29 -117 1 -214 1 -215 0z"/>
</g>
</svg>
